<svg width="20" height="23" viewBox="0 0 20 23" fill="none" xmlns="http://www.w3.org/2000/svg">
<g filter="url(#filter0_d_1_1798)">
<path d="M14.6667 11.16V3.11333C14.6667 2.31333 14.0134 1.71999 13.22 1.78666H13.18C11.78 1.90666 9.65337 2.61999 8.46671 3.36666L8.35337 3.43999C8.16004 3.55999 7.84004 3.55999 7.64671 3.43999L7.48004 3.33999C6.29337 2.59999 4.17337 1.89333 2.77337 1.77999C1.98004 1.71333 1.33337 2.31333 1.33337 3.10666V11.16C1.33337 11.8 1.85337 12.4 2.49337 12.48L2.68671 12.5067C4.13337 12.7 6.36671 13.4333 7.64671 14.1333L7.67337 14.1467C7.85337 14.2467 8.14004 14.2467 8.31337 14.1467C9.59337 13.44 11.8334 12.7 13.2867 12.5067L13.5067 12.48C14.1467 12.4 14.6667 11.8 14.6667 11.16Z" stroke="#517FFD" stroke-width="1.5" stroke-linecap="round" stroke-linejoin="round"/>
<path d="M8 3.66V13.66" stroke="#517FFD" stroke-width="1.5" stroke-linecap="round" stroke-linejoin="round"/>
<path d="M5.16663 5.66H3.66663" stroke="#517FFD" stroke-width="1.5" stroke-linecap="round" stroke-linejoin="round"/>
<path d="M5.66663 7.66H3.66663" stroke="#517FFD" stroke-width="1.5" stroke-linecap="round" stroke-linejoin="round"/>
</g>
<defs>
<filter id="filter0_d_1_1798" x="-3.41663" y="1.02487" width="22.8334" height="21.9468" filterUnits="userSpaceOnUse" color-interpolation-filters="sRGB">
<feFlood flood-opacity="0" result="BackgroundImageFix"/>
<feColorMatrix in="SourceAlpha" type="matrix" values="0 0 0 0 0 0 0 0 0 0 0 0 0 0 0 0 0 0 127 0" result="hardAlpha"/>
<feOffset dy="4"/>
<feGaussianBlur stdDeviation="2"/>
<feComposite in2="hardAlpha" operator="out"/>
<feColorMatrix type="matrix" values="0 0 0 0 0 0 0 0 0 0 0 0 0 0 0 0 0 0 0.25 0"/>
<feBlend mode="normal" in2="BackgroundImageFix" result="effect1_dropShadow_1_1798"/>
<feBlend mode="normal" in="SourceGraphic" in2="effect1_dropShadow_1_1798" result="shape"/>
</filter>
</defs>
</svg>
